<svg width="17" height="17" viewBox="0 0 17 17" fill="none" xmlns="http://www.w3.org/2000/svg">
<mask id="path-1-inside-1_271_77" fill="white">
<path d="M11.6359 13.8644C14.5935 12.1354 15.5932 8.32204 13.8641 5.3644C12.1351 2.40677 8.32175 1.40713 5.36411 3.13618C2.40647 4.86523 1.40684 8.67854 3.13589 11.6362C4.86494 14.5938 8.67825 15.5935 11.6359 13.8644ZM5.62544 3.58319C8.33677 1.99813 11.832 2.91439 13.4171 5.62573C15.0022 8.33706 14.0859 11.8323 11.3746 13.4174C8.66323 15.0025 5.16796 14.0862 3.5829 11.3749C1.99784 8.66352 2.9141 5.16825 5.62544 3.58319Z"/>
</mask>
<path d="M11.6359 13.8644C14.5935 12.1354 15.5932 8.32204 13.8641 5.3644C12.1351 2.40677 8.32175 1.40713 5.36411 3.13618C2.40647 4.86523 1.40684 8.67854 3.13589 11.6362C4.86494 14.5938 8.67825 15.5935 11.6359 13.8644ZM5.62544 3.58319C8.33677 1.99813 11.832 2.91439 13.4171 5.62573C15.0022 8.33706 14.0859 11.8323 11.3746 13.4174C8.66323 15.0025 5.16796 14.0862 3.5829 11.3749C1.99784 8.66352 2.9141 5.16825 5.62544 3.58319Z" fill="white"/>
<path d="M21.225 30.2671C33.2416 23.2421 37.2918 7.7919 30.2668 -4.22471L-2.5386 14.9535C-6.10547 8.85218 -4.05455 1.02856 2.04678 -2.53831L21.225 30.2671ZM30.2668 -4.22471C23.2419 -16.2413 7.79161 -20.2915 -4.225 -13.2665L14.9532 19.5389C8.85189 23.1058 1.02827 21.0548 -2.5386 14.9535L30.2668 -4.22471ZM-4.225 -13.2665C-16.2416 -6.24157 -20.2918 9.20868 -13.2668 21.2253L19.5386 2.04707C23.1055 8.1484 21.0546 15.972 14.9532 19.5389L-4.225 -13.2665ZM-13.2668 21.2253C-6.24186 33.2419 9.20839 37.2921 21.225 30.2671L2.04678 -2.53831C8.14811 -6.10518 15.9717 -4.05426 19.5386 2.04707L-13.2668 21.2253ZM15.2145 19.9859C8.86691 23.6968 0.725248 21.5625 -2.98561 15.2148L29.8198 -3.96338C22.9388 -15.7337 7.80663 -19.7005 -3.96367 -12.8195L15.2145 19.9859ZM-2.98561 15.2148C-6.69647 8.8672 -4.56218 0.725538 1.78545 -2.98532L20.9637 29.8201C32.734 22.9391 36.7008 7.80692 29.8198 -3.96338L-2.98561 15.2148ZM1.78545 -2.98532C8.13309 -6.69618 16.2748 -4.56189 19.9856 1.78574L-12.8198 20.964C-5.93884 32.7343 9.19337 36.7011 20.9637 29.8201L1.78545 -2.98532ZM19.9856 1.78574C23.6965 8.13338 21.5622 16.275 15.2145 19.9859L-3.96367 -12.8195C-15.734 -5.93855 -19.7008 9.19366 -12.8198 20.964L19.9856 1.78574Z" fill="black" mask="url(#path-1-inside-1_271_77)"/>
<mask id="path-3-inside-2_271_77" fill="white">
<path d="M8.04847 9.43883L11.6979 11.5458L11.9568 11.0974L8.30736 8.99041C8.30681 8.81221 8.21619 8.63882 8.05049 8.54316C8.01059 8.52012 7.96868 8.50519 7.92612 8.49347L7.09401 5.388L6.59394 5.522L7.42605 8.62747C7.39505 8.65889 7.36622 8.69277 7.34318 8.73268C7.20027 8.98021 7.28495 9.29696 7.5327 9.44C7.69817 9.53553 7.89364 9.52731 8.04847 9.43883Z"/>
</mask>
<path d="M8.04847 9.43883L11.6979 11.5458L11.9568 11.0974L8.30736 8.99041C8.30681 8.81221 8.21619 8.63882 8.05049 8.54316C8.01059 8.52012 7.96868 8.50519 7.92612 8.49347L7.09401 5.388L6.59394 5.522L7.42605 8.62747C7.39505 8.65889 7.36622 8.69277 7.34318 8.73268C7.20027 8.98021 7.28495 9.29696 7.5327 9.44C7.69817 9.53553 7.89364 9.52731 8.04847 9.43883Z" fill="white"/>
<path d="M8.04847 9.43883L17.5485 -7.01566L8.09636 -12.4728L-1.37952 -7.05702L8.04847 9.43883ZM11.6979 11.5458L2.19793 28.0003L18.6524 37.5003L28.1524 21.0458L11.6979 11.5458ZM11.9568 11.0974L28.4113 20.5974L37.9113 4.14295L21.4568 -5.35705L11.9568 11.0974ZM8.30736 8.99041L-10.6925 9.04961L-10.6585 19.9798L-1.19264 25.4449L8.30736 8.99041ZM7.92612 8.49347L-10.4265 13.411L-7.60977 23.9231L2.88271 26.8119L7.92612 8.49347ZM7.09401 5.388L25.4466 0.470441L20.529 -17.8821L2.17646 -12.9646L7.09401 5.388ZM6.59394 5.522L1.67639 -12.8306L-16.6762 -7.91305L-11.7587 10.4396L6.59394 5.522ZM7.42605 8.62747L20.953 21.97L28.5953 14.222L25.7786 3.70991L7.42605 8.62747ZM-1.45154 25.8933L2.19793 28.0003L21.1979 -4.90863L17.5485 -7.01566L-1.45154 25.8933ZM28.1524 21.0458L28.4113 20.5974L-4.49765 1.59743L-4.75655 2.04585L28.1524 21.0458ZM21.4568 -5.35705L17.8074 -7.46408L-1.19264 25.4449L2.45683 27.5519L21.4568 -5.35705ZM27.3073 8.9312C27.287 2.42299 23.9452 -4.21932 17.5505 -7.91132L-1.44951 24.9976C-7.51286 21.497 -10.6734 15.2014 -10.6925 9.04961L27.3073 8.9312ZM17.5505 -7.91132C15.6024 -9.03608 13.8802 -9.5742 12.9695 -9.82493L2.88271 26.8119C2.05713 26.5846 0.418816 26.0763 -1.44951 24.9976L17.5505 -7.91132ZM26.2787 3.57591L25.4466 0.470441L-11.2586 10.3056L-10.4265 13.411L26.2787 3.57591ZM2.17646 -12.9646L1.67639 -12.8306L11.5115 23.8746L12.0116 23.7406L2.17646 -12.9646ZM-11.7587 10.4396L-10.9265 13.545L25.7786 3.70991L24.9465 0.604437L-11.7587 10.4396ZM-6.10088 -4.71503C-6.7642 -4.04254 -7.98654 -2.71546 -9.1113 -0.767319L23.7977 18.2327C22.719 20.101 21.5543 21.3603 20.953 21.97L-6.10088 -4.71503ZM-9.1113 -0.767319C-14.4978 8.56241 -11.308 20.5016 -1.9673 25.8945L17.0327 -7.01448C25.8779 -1.90772 28.8984 9.39801 23.7977 18.2327L-9.1113 -0.767319ZM-1.9673 25.8945C4.43516 29.5909 11.8495 29.1507 17.4764 25.9347L-1.37952 -7.05702C3.93783 -10.0961 10.9612 -10.5199 17.0327 -7.01448L-1.9673 25.8945Z" fill="white" mask="url(#path-3-inside-2_271_77)"/>
</svg>
